<svg xmlns="http://www.w3.org/2000/svg" viewBox="0 0 907.11 35.02"><defs><style>.cls-1{font-size:27.73px;font-family:FuturaStd-Medium, Futura Std;font-weight:500;}.cls-1,.cls-3{fill:#fff;}.cls-2{font-family:FuturaStd-ExtraBold, Futura Std;font-weight:800;}.cls-4{fill:#d50100;}</style></defs><g id="Layer_2" data-name="Layer 2"><g id="Capa_1" data-name="Capa 1"><text class="cls-1" transform="translate(29.6 27.59)">LOS MÁS<tspan class="cls-2" x="114.51" y="0" xml:space="preserve"> VENDIDOS</tspan></text><rect class="cls-3" x="340.11" y="16.37" width="39.66" height="4.07" rx="2.03"/><rect class="cls-3" x="383.18" y="16.37" width="76.81" height="4.07" rx="2.03"/><rect class="cls-3" x="462.97" y="16.37" width="16" height="4.07" rx="2.03"/><rect class="cls-3" x="482.83" y="16.37" width="39.66" height="4.07" rx="2.03"/><rect class="cls-3" x="525.9" y="16.37" width="76.81" height="4.07" rx="2.03"/><rect class="cls-3" x="605.69" y="16.37" width="16" height="4.07" rx="2.03"/><rect class="cls-3" x="625.54" y="16.37" width="39.66" height="4.07" rx="2.03"/><rect class="cls-3" x="668.61" y="16.37" width="76.81" height="4.07" rx="2.03"/><rect class="cls-3" x="748.4" y="16.37" width="16" height="4.07" rx="2.03"/><rect class="cls-3" x="768.26" y="16.37" width="39.66" height="4.07" rx="2.03"/><rect class="cls-3" x="811.33" y="16.37" width="76.81" height="4.07" rx="2.03"/><rect class="cls-3" x="891.12" y="16.37" width="16" height="4.07" rx="2.03"/><polygon class="cls-3" points="328.29 9.89 326.53 14.15 324.76 18.41 326.53 22.66 328.29 26.92 332.55 28.68 336.8 30.45 341.06 28.68 345.31 26.92 347.08 22.66 348.84 18.41 347.08 14.15 345.31 9.89 341.06 8.13 336.8 6.37 332.55 8.13 328.29 9.89"/><polygon class="cls-4" points="3.53 9.89 1.76 14.15 0 18.41 1.76 22.66 3.53 26.92 7.78 28.68 12.04 30.45 16.3 28.68 20.55 26.92 22.32 22.66 24.08 18.41 22.32 14.15 20.55 9.89 16.3 8.13 12.04 6.37 7.78 8.13 3.53 9.89"/></g></g></svg>