<svg xmlns="http://www.w3.org/2000/svg" viewBox="0 0 907.11 30.44"><defs><style>.cls-1{font-size:27.73px;font-family:FuturaStd-Medium, Futura Std;font-weight:500;}.cls-1,.cls-3{fill:#333;}.cls-2{font-family:FuturaStd-ExtraBold, Futura Std;font-weight:800;}.cls-4{fill:#d50100;}</style></defs><g id="Layer_2" data-name="Layer 2"><g id="Capa_1" data-name="Capa 1"><text class="cls-1" transform="translate(35.6 23.01)">NUESTRAS<tspan class="cls-2" x="131.73" y="0" xml:space="preserve"> MARCAS</tspan></text><rect class="cls-3" x="340.11" y="11.8" width="39.66" height="4.07" rx="2.03"/><rect class="cls-3" x="383.18" y="11.8" width="76.81" height="4.07" rx="2.03"/><rect class="cls-3" x="462.97" y="11.8" width="16" height="4.07" rx="2.03"/><rect class="cls-3" x="482.83" y="11.8" width="39.66" height="4.07" rx="2.03"/><rect class="cls-3" x="525.9" y="11.8" width="76.81" height="4.07" rx="2.03"/><rect class="cls-3" x="605.69" y="11.8" width="16" height="4.07" rx="2.03"/><rect class="cls-3" x="625.54" y="11.8" width="39.66" height="4.07" rx="2.03"/><rect class="cls-3" x="668.61" y="11.8" width="76.81" height="4.07" rx="2.03"/><rect class="cls-3" x="748.4" y="11.8" width="16" height="4.07" rx="2.03"/><rect class="cls-3" x="768.26" y="11.8" width="39.66" height="4.07" rx="2.03"/><rect class="cls-3" x="811.33" y="11.8" width="76.81" height="4.07" rx="2.03"/><rect class="cls-3" x="891.12" y="11.8" width="16" height="4.07" rx="2.03"/><polygon class="cls-3" points="328.29 5.32 326.53 9.57 324.76 13.83 326.53 18.09 328.29 22.34 332.55 24.11 336.8 25.87 341.06 24.11 345.31 22.34 347.08 18.09 348.84 13.83 347.08 9.57 345.31 5.32 341.06 3.55 336.8 1.79 332.55 3.55 328.29 5.32"/><polygon class="cls-4" points="3.53 5.32 1.76 9.57 0 13.83 1.76 18.09 3.53 22.34 7.78 24.11 12.04 25.87 16.3 24.11 20.55 22.34 22.32 18.09 24.08 13.83 22.32 9.57 20.55 5.32 16.3 3.55 12.04 1.79 7.78 3.55 3.53 5.32"/></g></g></svg>