<svg xmlns="http://www.w3.org/2000/svg" viewBox="0 0 1003.45 30.69"><defs><style>.cls-1{font-size:27.73px;font-family:FuturaStd-Medium, Futura Std;font-weight:500;}.cls-1,.cls-3{fill:#fff;}.cls-2{font-family:FuturaStd-ExtraBold, Futura Std;font-weight:800;}.cls-4{fill:#d50100;}</style></defs><g id="Layer_2" data-name="Layer 2"><g id="Capa_1" data-name="Capa 1"><text class="cls-1" transform="translate(595.44 23.26)">PRODUCTOS<tspan class="cls-2" x="157.54" y="0" xml:space="preserve"> DESTACADOS</tspan></text><rect class="cls-3" x="527.34" y="12.04" width="39.66" height="4.07" rx="2.03"/><rect class="cls-3" x="447.11" y="12.04" width="76.81" height="4.07" rx="2.03"/><rect class="cls-3" x="428.14" y="12.04" width="16" height="4.07" rx="2.03"/><rect class="cls-3" x="384.62" y="12.04" width="39.66" height="4.07" rx="2.03"/><rect class="cls-3" x="304.4" y="12.04" width="76.81" height="4.07" rx="2.03"/><rect class="cls-3" x="285.43" y="12.04" width="16" height="4.07" rx="2.03"/><rect class="cls-3" x="241.91" y="12.04" width="39.66" height="4.07" rx="2.03"/><rect class="cls-3" x="161.69" y="12.04" width="76.81" height="4.07" rx="2.03"/><rect class="cls-3" x="142.71" y="12.04" width="16" height="4.07" rx="2.03"/><rect class="cls-3" x="99.19" y="12.04" width="39.66" height="4.07" rx="2.03"/><rect class="cls-3" x="18.97" y="12.04" width="76.81" height="4.07" rx="2.03"/><rect class="cls-3" y="12.04" width="16" height="4.07" rx="2.03"/><polygon class="cls-3" points="578.82 3.53 580.59 7.78 582.35 12.04 580.59 16.3 578.82 20.55 574.57 22.32 570.31 24.08 566.05 22.32 561.8 20.55 560.03 16.3 558.27 12.04 560.03 7.78 561.8 3.53 566.05 1.76 570.31 0 574.57 1.76 578.82 3.53"/><polygon class="cls-4" points="999.93 5.56 1001.69 9.82 1003.46 14.07 1001.69 18.33 999.93 22.59 995.67 24.35 991.41 26.11 987.16 24.35 982.9 22.59 981.14 18.33 979.38 14.07 981.14 9.82 982.9 5.56 987.16 3.8 991.41 2.03 995.67 3.8 999.93 5.56"/></g></g></svg>